# xmcd
#
# Track frame offsets: 
#        183
#        15105
#        27718
#        41080
#
# Disc length: 813 seconds
#
# Revision: 0
# Processed by: cddbd v1.5.2PL0 Copyright (c) Steve Scherf et al.
# Submitted via: ExactAudioCopy v0.95b4
#
DISCID=27032b04
DTITLE=Loved Ones - You Better Do Right
DYEAR=1994
DGENRE=Blues
TTITLE0=You Better Do Right
TTITLE1=Lickin Stick
TTITLE2=Don't Want To Let You Go
TTITLE3=Cut That Out (live @ KRO Leidsekade Live)
EXTD=
EXTT0=
EXTT1=
EXTT2=
EXTT3=
PLAYORDER=
